# xmcd
#
# Track frame offsets:
#	150
#	16687
#	30435
#	46402
#	61125
#	76697
#	92050
#	104245
#	118965
#	131302
#	151507
#	172165
#	184777
#	199117
#	225657
#	239180
#	252075
#
# Disc length: 3640 seconds
# Revision: 15
# Processed by: cddbd v1.5.2PL0 Copyright (c) Steve Scherf et al.
# Submitted via: dBpowerAMP V12.0
#
DISCID=d80e3611
DTITLE=Various Artist - Ride With Bob
DYEAR=1999
DGENRE=Country
TTITLE0=Tommy Allsup et al - Bob's Breakdown
TTITLE1=Dwight Yoakam - New San Antonio Rose
TTITLE2=Don Walser - I Ain't Got Nobody
TTITLE3=The Dixie Chicks - Roly Poly
TTITLE4=Lee Ann Womack - Heart To Heart Talk
TTITLE5=Ray Benson - Cherokee Maiden
TTITLE6=The Squirrel Nut Zippers - Maiden's Prayer
TTITLE7=Tracey Byrd and Ray Benson - You're From Texas
TTITLE8=Reba McEntire - Right Or Wrong
TTITLE9=Shawn Colvin and Lyle Lovett - Faded Love
TTITLE10=Merle Haggard - St. Louis Blues
TTITLE11=Jason Roberts - End Of The Line
TTITLE12=Clay Walker and Ray Benson - Take Me Back To Tulsa
TTITLE13=Tim McGraw and Ray Benson - Milk Cow Blues
TTITLE14=Mark Chesnutt and Ray Benson - Stay All Night
TTITLE15=Clint Black - Bob Wills Is Still The King
TTITLE16=The Manhattan Transfer and Willie Nelson - Going Away Party
EXTD=
EXTT0=
EXTT1=
EXTT2=
EXTT3=
EXTT4=
EXTT5=
EXTT6=
EXTT7=
EXTT8=
EXTT9=
EXTT10=
EXTT11=
EXTT12=
EXTT13=
EXTT14=
EXTT15=
EXTT16=
PLAYORDER=
